<?xml version="1.0" encoding="UTF-8"?>
<svg width="512" height="512" viewBox="0 0 512 512" xmlns="http://www.w3.org/2000/svg">
  <!-- Background circle -->
  <circle cx="256" cy="256" r="240" fill="#2563eb" stroke="#1d4ed8" stroke-width="8"/>
  
  <!-- Scale platform -->
  <rect x="128" y="320" width="256" height="32" rx="16" fill="#ffffff"/>
  
  <!-- Scale pillar -->
  <rect x="240" y="200" width="32" height="120" fill="#ffffff"/>
  
  <!-- Scale display -->
  <rect x="200" y="160" width="112" height="80" rx="8" fill="#1e293b"/>
  <rect x="208" y="168" width="96" height="64" rx="4" fill="#0f172a"/>
  
  <!-- Display text -->
  <text x="256" y="205" text-anchor="middle" fill="#34d399" font-family="monospace" font-size="24" font-weight="bold">850</text>
  <text x="256" y="225" text-anchor="middle" fill="#fbbf24" font-family="monospace" font-size="16">kg</text>
  
  <!-- Ethernet symbol -->
  <circle cx="320" cy="120" r="24" fill="#ffffff"/>
  <rect x="308" y="108" width="24" height="4" fill="#2563eb"/>
  <rect x="308" y="116" width="24" height="4" fill="#2563eb"/>
  <rect x="308" y="124" width="24" height="4" fill="#2563eb"/>
  <rect x="308" y="132" width="24" height="4" fill="#2563eb"/>
  
  <!-- Connection lines -->
  <path d="M 344 120 Q 380 120 380 180 Q 380 200 360 200" stroke="#ffffff" stroke-width="3" fill="none"/>
  <circle cx="356" cy="202" r="3" fill="#ffffff"/>
</svg>
